<mxfile host="Electron" agent="Mozilla/5.0 (Windows NT 10.0; Win64; x64) AppleWebKit/537.36 (KHTML, like Gecko) draw.io/24.7.17 Chrome/128.0.6613.36 Electron/32.0.1 Safari/537.36" version="24.7.17">
  <diagram name="Page-1" id="haynN7dFTDIwlil2D3gh">
    <mxGraphModel dx="1644" dy="1611" grid="1" gridSize="10" guides="1" tooltips="1" connect="1" arrows="1" fold="1" page="1" pageScale="1" pageWidth="850" pageHeight="1100" math="0" shadow="0">
      <root>
        <mxCell id="0" />
        <mxCell id="1" parent="0" />
        <mxCell id="Rru775cGpQevPS6XfHSu-3" style="edgeStyle=orthogonalEdgeStyle;rounded=0;orthogonalLoop=1;jettySize=auto;html=1;exitX=1;exitY=0.5;exitDx=0;exitDy=0;entryX=0;entryY=0.5;entryDx=0;entryDy=0;" edge="1" parent="1" source="Rru775cGpQevPS6XfHSu-1" target="Rru775cGpQevPS6XfHSu-2">
          <mxGeometry relative="1" as="geometry" />
        </mxCell>
        <mxCell id="Rru775cGpQevPS6XfHSu-1" value="&lt;font style=&quot;font-size: 18px;&quot; face=&quot;Times New Roman&quot;&gt;&lt;b&gt;Start&lt;/b&gt;&lt;/font&gt;" style="ellipse;whiteSpace=wrap;html=1;" vertex="1" parent="1">
          <mxGeometry y="-1020" width="120" height="80" as="geometry" />
        </mxCell>
        <mxCell id="Rru775cGpQevPS6XfHSu-5" style="edgeStyle=orthogonalEdgeStyle;rounded=0;orthogonalLoop=1;jettySize=auto;html=1;exitX=1;exitY=0.5;exitDx=0;exitDy=0;entryX=0;entryY=0.5;entryDx=0;entryDy=0;" edge="1" parent="1" source="Rru775cGpQevPS6XfHSu-2" target="Rru775cGpQevPS6XfHSu-4">
          <mxGeometry relative="1" as="geometry" />
        </mxCell>
        <mxCell id="Rru775cGpQevPS6XfHSu-2" value="&lt;font style=&quot;font-size: 18px;&quot; face=&quot;Times New Roman&quot;&gt;input userLastName&lt;/font&gt;" style="shape=parallelogram;perimeter=parallelogramPerimeter;whiteSpace=wrap;html=1;fixedSize=1;" vertex="1" parent="1">
          <mxGeometry x="150" y="-1010" width="190" height="60" as="geometry" />
        </mxCell>
        <mxCell id="Rru775cGpQevPS6XfHSu-8" style="edgeStyle=orthogonalEdgeStyle;rounded=0;orthogonalLoop=1;jettySize=auto;html=1;exitX=1;exitY=0.5;exitDx=0;exitDy=0;entryX=0;entryY=0.5;entryDx=0;entryDy=0;" edge="1" parent="1" source="Rru775cGpQevPS6XfHSu-4" target="Rru775cGpQevPS6XfHSu-7">
          <mxGeometry relative="1" as="geometry" />
        </mxCell>
        <mxCell id="Rru775cGpQevPS6XfHSu-4" value="&lt;font style=&quot;font-size: 18px;&quot; face=&quot;Times New Roman&quot;&gt;input bathroomNum&lt;/font&gt;" style="shape=parallelogram;perimeter=parallelogramPerimeter;whiteSpace=wrap;html=1;fixedSize=1;" vertex="1" parent="1">
          <mxGeometry x="370" y="-1010" width="180" height="60" as="geometry" />
        </mxCell>
        <mxCell id="Rru775cGpQevPS6XfHSu-12" style="edgeStyle=orthogonalEdgeStyle;rounded=0;orthogonalLoop=1;jettySize=auto;html=1;exitX=0.5;exitY=1;exitDx=0;exitDy=0;entryX=0.5;entryY=0;entryDx=0;entryDy=0;" edge="1" parent="1" source="Rru775cGpQevPS6XfHSu-7" target="Rru775cGpQevPS6XfHSu-11">
          <mxGeometry relative="1" as="geometry" />
        </mxCell>
        <mxCell id="Rru775cGpQevPS6XfHSu-7" value="&lt;font style=&quot;font-size: 18px;&quot; face=&quot;Times New Roman&quot;&gt;input otherroomNum&lt;/font&gt;" style="shape=parallelogram;perimeter=parallelogramPerimeter;whiteSpace=wrap;html=1;fixedSize=1;" vertex="1" parent="1">
          <mxGeometry x="570" y="-1010" width="190" height="60" as="geometry" />
        </mxCell>
        <mxCell id="Rru775cGpQevPS6XfHSu-14" style="edgeStyle=orthogonalEdgeStyle;rounded=0;orthogonalLoop=1;jettySize=auto;html=1;exitX=0;exitY=0.5;exitDx=0;exitDy=0;" edge="1" parent="1" source="Rru775cGpQevPS6XfHSu-11" target="Rru775cGpQevPS6XfHSu-13">
          <mxGeometry relative="1" as="geometry" />
        </mxCell>
        <mxCell id="Rru775cGpQevPS6XfHSu-11" value="&lt;font face=&quot;Times New Roman&quot; style=&quot;font-size: 18px;&quot;&gt;display userLastname&amp;nbsp;&lt;/font&gt;" style="shape=parallelogram;perimeter=parallelogramPerimeter;whiteSpace=wrap;html=1;fixedSize=1;" vertex="1" parent="1">
          <mxGeometry x="592.5" y="-900" width="145" height="60" as="geometry" />
        </mxCell>
        <mxCell id="Rru775cGpQevPS6XfHSu-20" style="edgeStyle=orthogonalEdgeStyle;rounded=0;orthogonalLoop=1;jettySize=auto;html=1;exitX=0;exitY=0.5;exitDx=0;exitDy=0;entryX=1;entryY=0.5;entryDx=0;entryDy=0;" edge="1" parent="1" source="Rru775cGpQevPS6XfHSu-13" target="Rru775cGpQevPS6XfHSu-19">
          <mxGeometry relative="1" as="geometry" />
        </mxCell>
        <mxCell id="Rru775cGpQevPS6XfHSu-13" value="&lt;font face=&quot;Times New Roman&quot; style=&quot;font-size: 18px;&quot;&gt;bathroomCost = bathroomNum * 15&lt;/font&gt;" style="rounded=0;whiteSpace=wrap;html=1;" vertex="1" parent="1">
          <mxGeometry x="365" y="-900" width="190" height="60" as="geometry" />
        </mxCell>
        <mxCell id="Rru775cGpQevPS6XfHSu-23" style="edgeStyle=orthogonalEdgeStyle;rounded=0;orthogonalLoop=1;jettySize=auto;html=1;exitX=1;exitY=0.5;exitDx=0;exitDy=0;" edge="1" parent="1" source="Rru775cGpQevPS6XfHSu-15" target="Rru775cGpQevPS6XfHSu-22">
          <mxGeometry relative="1" as="geometry" />
        </mxCell>
        <mxCell id="Rru775cGpQevPS6XfHSu-15" value="&lt;font face=&quot;Times New Roman&quot; style=&quot;font-size: 18px;&quot;&gt;otherroomCost = otherroomNum * 10&lt;/font&gt;" style="rounded=0;whiteSpace=wrap;html=1;" vertex="1" parent="1">
          <mxGeometry x="65" y="-750" width="180" height="60" as="geometry" />
        </mxCell>
        <mxCell id="Rru775cGpQevPS6XfHSu-26" style="edgeStyle=orthogonalEdgeStyle;rounded=0;orthogonalLoop=1;jettySize=auto;html=1;exitX=0.5;exitY=1;exitDx=0;exitDy=0;" edge="1" parent="1" source="Rru775cGpQevPS6XfHSu-17" target="Rru775cGpQevPS6XfHSu-25">
          <mxGeometry relative="1" as="geometry" />
        </mxCell>
        <mxCell id="Rru775cGpQevPS6XfHSu-17" value="&lt;font style=&quot;font-size: 18px;&quot; face=&quot;Times New Roman&quot;&gt;servCharge = 40 + bathroomCost + otherroomCost&lt;/font&gt;" style="rounded=0;whiteSpace=wrap;html=1;" vertex="1" parent="1">
          <mxGeometry x="575" y="-755" width="185" height="70" as="geometry" />
        </mxCell>
        <mxCell id="Rru775cGpQevPS6XfHSu-21" style="edgeStyle=orthogonalEdgeStyle;rounded=0;orthogonalLoop=1;jettySize=auto;html=1;exitX=0.5;exitY=1;exitDx=0;exitDy=0;" edge="1" parent="1" source="Rru775cGpQevPS6XfHSu-19" target="Rru775cGpQevPS6XfHSu-15">
          <mxGeometry relative="1" as="geometry" />
        </mxCell>
        <mxCell id="Rru775cGpQevPS6XfHSu-19" value="&lt;font style=&quot;font-size: 18px;&quot; face=&quot;Times New Roman&quot;&gt;display &quot;Service for&quot; + bathroomNum + &quot;bathrooms will cost you&quot; + bathroomCost&lt;/font&gt;" style="shape=parallelogram;perimeter=parallelogramPerimeter;whiteSpace=wrap;html=1;fixedSize=1;" vertex="1" parent="1">
          <mxGeometry x="20" y="-925" width="270" height="110" as="geometry" />
        </mxCell>
        <mxCell id="Rru775cGpQevPS6XfHSu-24" style="edgeStyle=orthogonalEdgeStyle;rounded=0;orthogonalLoop=1;jettySize=auto;html=1;exitX=1;exitY=0.5;exitDx=0;exitDy=0;entryX=0;entryY=0.5;entryDx=0;entryDy=0;" edge="1" parent="1" source="Rru775cGpQevPS6XfHSu-22" target="Rru775cGpQevPS6XfHSu-17">
          <mxGeometry relative="1" as="geometry" />
        </mxCell>
        <mxCell id="Rru775cGpQevPS6XfHSu-22" value="&lt;font face=&quot;Times New Roman&quot; style=&quot;font-size: 18px;&quot;&gt;display &quot;Service for&quot; otherroomCost + &quot;other rooms will cost you&quot; + otherroomCost&lt;/font&gt;" style="shape=parallelogram;perimeter=parallelogramPerimeter;whiteSpace=wrap;html=1;fixedSize=1;" vertex="1" parent="1">
          <mxGeometry x="315" y="-765" width="220" height="90" as="geometry" />
        </mxCell>
        <mxCell id="Rru775cGpQevPS6XfHSu-30" style="edgeStyle=orthogonalEdgeStyle;rounded=0;orthogonalLoop=1;jettySize=auto;html=1;exitX=0;exitY=0.5;exitDx=0;exitDy=0;entryX=1;entryY=0.5;entryDx=0;entryDy=0;" edge="1" parent="1" source="Rru775cGpQevPS6XfHSu-25" target="Rru775cGpQevPS6XfHSu-29">
          <mxGeometry relative="1" as="geometry" />
        </mxCell>
        <mxCell id="Rru775cGpQevPS6XfHSu-25" value="&lt;font face=&quot;Times New Roman&quot; style=&quot;font-size: 18px;&quot;&gt;display &quot;The final cost for everthing will be&quot; + servCharge&lt;/font&gt;" style="shape=parallelogram;perimeter=parallelogramPerimeter;whiteSpace=wrap;html=1;fixedSize=1;" vertex="1" parent="1">
          <mxGeometry x="490" y="-630" width="230" height="80" as="geometry" />
        </mxCell>
        <mxCell id="Rru775cGpQevPS6XfHSu-27" value="&lt;font style=&quot;font-size: 18px;&quot; face=&quot;Times New Roman&quot;&gt;&lt;b&gt;Stop&lt;/b&gt;&lt;/font&gt;" style="ellipse;whiteSpace=wrap;html=1;" vertex="1" parent="1">
          <mxGeometry x="-20" y="-630" width="120" height="80" as="geometry" />
        </mxCell>
        <mxCell id="Rru775cGpQevPS6XfHSu-31" style="edgeStyle=orthogonalEdgeStyle;rounded=0;orthogonalLoop=1;jettySize=auto;html=1;exitX=0;exitY=0.5;exitDx=0;exitDy=0;entryX=1;entryY=0.5;entryDx=0;entryDy=0;" edge="1" parent="1" source="Rru775cGpQevPS6XfHSu-29" target="Rru775cGpQevPS6XfHSu-27">
          <mxGeometry relative="1" as="geometry" />
        </mxCell>
        <mxCell id="Rru775cGpQevPS6XfHSu-32" value="" style="edgeStyle=orthogonalEdgeStyle;rounded=0;orthogonalLoop=1;jettySize=auto;html=1;" edge="1" parent="1" source="Rru775cGpQevPS6XfHSu-29" target="Rru775cGpQevPS6XfHSu-27">
          <mxGeometry relative="1" as="geometry" />
        </mxCell>
        <mxCell id="Rru775cGpQevPS6XfHSu-29" value="&lt;font face=&quot;Times New Roman&quot; style=&quot;font-size: 18px;&quot;&gt;display &quot;Thank you for using Hazel&#39;s Housecleaning Service!&quot;&lt;/font&gt;" style="shape=parallelogram;perimeter=parallelogramPerimeter;whiteSpace=wrap;html=1;fixedSize=1;" vertex="1" parent="1">
          <mxGeometry x="170" y="-620" width="300" height="60" as="geometry" />
        </mxCell>
      </root>
    </mxGraphModel>
  </diagram>
</mxfile>
